PathFileType	4	(X/Y/Z)	D:\TRACE\spotREDO_2-26-24\spot_Both_Motion_1_8-v60.trc
DataRate	CameraRate	NumFrames	NumMarkers	Units	OrigDataRate	OrigDataStartFrame	OrigNumFrames
100.00	100.00	      34	9	mm	100.00	3501	      7000
Frame#	Time	front left toe			Front right toe			aft left toe			aft right toe			Arm			FL body			FR body			AL Body			AR Body			
		X1	Y1	Z1	X2	Y2	Z2	X3	Y3	Z3	X4	Y4	Z4	X5	Y5	Z5	X6	Y6	Z6	X7	Y7	Z7	X8	Y8	Z8	X9	Y9	Z9	

3501	35.000	-257.99652	97.38402	-452.73215	237.10965	23.66061	-373.61777	-279.14746	17.79374	118.94497	174.42317	27.04229	161.52257	-89.34019	738.07922	-754.55646	-101.47717	592.75928	-454.19000	53.17128	599.46527	-440.12180	-185.86928	550.08392	424.99103	-45.56172	556.32153	439.49744	
3502	35.010	-259.71936	86.24963	-451.22977	237.43013	23.69428	-373.90823	-277.70941	18.01711	119.21891	175.34097	27.18396	161.34818	-88.57099	738.82928	-754.62469	-102.77975	592.61102	-454.54346	51.60347	599.37952	-440.74631	-185.61165	550.32581	424.87277	-45.28542	556.54443	439.27475	
3503	35.020	-261.10446	75.36163	-449.80423	238.34959	24.08221	-374.18707	-276.70328	18.15060	119.14239	176.37607	26.97780	161.23473	-87.65472	739.30524	-754.99646	-104.62592	592.63092	-454.74063	49.91758	599.40997	-441.33521	-185.59604	550.40527	424.72073	-45.18660	556.78052	438.66599	
3504	35.030	-262.24747	64.47964	-448.72150	240.17880	24.96622	-374.12830	-276.14621	18.26510	119.04536	177.24644	26.95944	160.99666	-86.35751	739.83704	-755.44775	-106.09763	592.77734	-455.09448	48.47156	599.54431	-441.91507	-185.86575	550.59119	424.42053	-45.42692	557.47192	438.59845	
3505	35.040	-263.11285	54.04709	-448.20013	240.66313	24.94039	-374.39246	-275.04599	18.19236	119.03378	178.09914	27.06828	160.99361	-85.17645	740.37024	-755.84662	-107.53410	592.82941	-455.79837	47.00512	599.74878	-442.51105	-186.22954	550.63403	424.20853	-45.60538	557.11560	437.79434	
3506	35.050	-262.99908	43.42337	-448.06049	241.37534	24.78524	-374.27048	-274.54929	18.22333	118.95451	179.23659	27.09903	160.91548	-83.58152	740.45154	-756.17578	-108.67957	592.55078	-456.05276	45.82366	599.85370	-443.08423	-187.07106	550.70795	423.79175	-46.70655	557.91425	437.61121	
3507	35.060	-262.87668	32.74401	-447.94357	242.08269	24.69835	-374.44922	-274.09235	18.09789	118.90556	180.20593	27.27455	160.87819	-82.20007	740.72375	-756.70392	-110.08216	592.73499	-456.50647	44.49068	600.10144	-443.81815	-188.22293	550.89032	423.18161	-47.34134	557.47327	436.81525	
3508	35.070	-261.86542	21.98065	-448.31201	243.35942	24.83497	-374.17361	-273.33127	18.15600	118.95473	181.01219	27.16825	160.54466	-80.75596	740.48944	-757.04608	-111.10325	592.70691	-457.34009	43.25198	600.14014	-444.38959	-189.34082	550.85406	422.56961	-48.93561	557.73767	436.22525	
3509	35.080	-261.47073	17.89250	-451.17444	242.98727	22.72122	-375.35654	-272.74487	18.07311	118.86275	181.65877	27.21038	160.40361	-79.85002	740.50616	-757.44287	-112.09496	592.91724	-458.13510	42.31102	600.14532	-445.12167	-191.03955	551.10083	421.59079	-50.61935	558.08600	435.22195	
3510	35.090	-261.98325	17.52073	-448.97733	243.45702	24.00091	-375.76279	-272.32709	17.42251	118.83402	181.97032	28.13020	159.48233	-78.69720	740.26666	-757.78589	-113.40038	594.21069	-458.91489	41.47105	600.91809	-445.67474	-193.09973	551.39423	420.66055	-52.79383	558.51837	434.76419	
3511	35.100	-261.42413	17.41285	-449.26837	243.93892	25.67767	-377.35953	-273.33081	15.95838	118.81419	181.15346	28.83897	158.88257	-78.50214	740.26538	-757.77942	-113.94489	595.68079	-459.60849	40.62724	601.87354	-446.24899	-194.32008	551.40723	420.01074	-54.32832	558.13312	433.92761	
3512	35.110	-260.34579	17.73534	-449.31262	243.38255	24.24094	-378.56189	-273.83035	15.41514	118.54646	180.34770	29.34952	159.25479	-77.98042	740.50629	-757.63092	-114.38456	597.30054	-460.63031	40.10338	602.28217	-447.09000	-196.25410	551.95953	418.83475	-55.68193	556.79083	433.03973	
3513	35.120	-259.82837	17.71122	-449.74707	246.16219	25.11465	-377.11969	-272.62473	15.78573	117.85931	179.58826	29.48971	159.60588	-78.13425	740.75525	-757.69067	-114.54063	598.30426	-461.36575	39.95768	602.51013	-447.65695	-198.33669	552.93732	417.66336	-57.75585	557.31061	432.07755	
3514	35.130	-258.72668	17.32878	-450.14185	246.63303	25.12145	-376.66629	-272.34357	15.88449	117.68369	179.56406	29.65884	159.67947	-77.98770	741.46136	-757.86707	-114.49146	598.95154	-462.34406	40.03137	602.61017	-448.23026	-199.88121	553.97687	416.59753	-59.92374	558.43024	431.23029	
3515	35.140	-257.91965	16.97127	-450.31601	247.25114	24.63528	-377.17389	-271.87216	15.44297	117.64270	180.32878	29.88517	159.83096	-77.21101	741.95428	-758.12256	-114.52895	599.74969	-463.40475	40.09728	602.88391	-449.03476	-201.07036	554.88654	415.42947	-61.21775	559.20880	430.61075	
3516	35.150	-257.54382	16.70129	-450.50250	246.79465	23.00496	-378.24918	-270.79196	15.67897	117.38931	180.91484	29.92571	159.67491	-76.76802	742.20160	-757.59845	-114.39989	599.93634	-464.42828	40.05531	603.24060	-450.00854	-201.83849	555.68396	414.52606	-61.40644	559.07001	429.24057	
3517	35.160	-256.70300	16.33405	-450.84750	247.83258	23.11350	-377.89697	-269.99756	15.90508	117.30540	181.45319	29.90878	159.17307	-76.58578	742.45844	-757.95673	-114.48441	600.08459	-465.51099	39.88749	603.58350	-450.97202	-202.50809	556.49518	413.29330	-61.84433	560.31146	428.48260	
3518	35.170	-256.22043	16.25168	-450.79745	248.24199	22.88199	-377.95624	-269.18317	15.98340	117.12093	182.23946	30.34898	159.15710	-76.34356	742.35773	-758.33728	-114.44362	600.22083	-466.54340	39.97403	603.75250	-451.81015	-202.36046	557.42737	412.28445	-62.44654	561.76221	427.72284	
3519	35.180	-255.78560	15.81331	-450.83255	249.32272	24.13554	-378.16617	-268.63947	16.05736	116.74512	182.97075	30.47783	158.98083	-76.71826	742.20386	-758.75195	-114.73842	600.25482	-467.62961	40.02048	603.84906	-453.09412	-202.40643	558.34497	411.32990	-62.02641	562.10547	426.27377	
3520	35.190	-255.12747	15.30291	-451.00162	249.93492	23.72706	-378.40652	-268.03595	16.09704	116.67728	183.46150	30.44788	158.75369	-77.16251	741.88501	-759.01672	-114.37840	600.30267	-468.66681	40.23742	603.93604	-454.05414	-202.39771	559.09088	410.16061	-62.07318	563.39514	425.59094	
3521	35.200	-254.47610	14.77315	-451.14752	250.53067	23.55868	-378.48019	-267.03067	16.10834	116.65377	184.11049	30.48688	158.55875	-77.81963	741.73279	-759.44159	-114.59310	600.57001	-469.45563	40.00799	604.03778	-455.57068	-201.52669	559.70361	409.14511	-61.30052	563.96442	424.33325	
3522	35.210	-254.17119	14.68643	-451.26566	250.09979	22.19539	-379.32004	-266.60855	16.26586	116.41450	184.78618	30.57467	158.26544	-78.16086	741.50641	-759.56451	-114.31000	600.60022	-471.04233	40.18753	604.06805	-456.63324	-200.68550	560.19659	408.17297	-60.28974	564.17896	422.94809	
3523	35.220	-253.92401	14.53179	-451.29770	250.81316	22.57821	-378.99463	-266.11011	16.46287	116.22968	185.68675	30.59062	158.12813	-78.43630	741.32983	-759.93195	-114.36115	600.59692	-472.05487	40.10823	604.18890	-457.92523	-199.88390	560.81580	407.06744	-59.31791	564.56775	421.84003	
3524	35.230	-253.46381	14.20338	-451.49368	250.96021	22.17881	-379.40143	-265.60571	16.72070	116.20709	186.18588	30.61746	157.78288	-78.20599	741.21930	-760.35077	-114.39121	600.40967	-473.34540	40.39387	604.13007	-459.34430	-198.76437	561.17889	406.18008	-58.13437	565.12079	420.62302	
3525	35.240	-252.90062	13.57196	-451.64297	251.22995	21.29084	-380.22098	-264.73895	16.63554	116.15976	186.76213	30.70504	157.47456	-77.86370	741.00806	-760.61633	-114.18828	600.08173	-474.34851	40.33247	604.01447	-460.61484	-197.77441	561.52094	404.99200	-57.05972	565.43323	419.59747	
3526	35.250	-252.51466	13.25710	-451.69406	251.69283	21.61294	-380.17557	-264.20996	16.80013	115.83096	187.64651	30.63064	157.30038	-77.39050	740.90320	-760.88562	-113.95379	600.01440	-475.26883	40.59465	603.78351	-461.86960	-196.27904	561.95917	404.13449	-55.87430	566.16718	418.15518	
3527	35.260	-252.11339	13.04720	-451.73630	252.11919	21.06182	-380.72037	-263.79352	16.89035	115.98393	188.05698	30.49027	157.16867	-76.67757	740.74640	-761.40283	-113.80429	599.86676	-476.61676	40.77383	603.66211	-463.31918	-194.94861	562.36304	403.06168	-54.98174	567.07446	417.36142	
3528	35.270	-251.76549	12.92921	-451.76959	252.38589	20.97548	-380.65860	-263.39395	17.20078	115.78206	188.56560	30.45631	156.94742	-75.62789	740.71997	-761.87799	-113.03091	599.78870	-477.61688	41.30875	603.60126	-464.43872	-193.72266	562.96875	402.02051	-53.44438	567.17639	415.99991	
3529	35.280	-251.38089	12.76643	-451.90952	253.18349	20.83670	-380.69366	-262.85471	17.28912	115.84936	188.94701	30.44390	156.82661	-74.64526	740.64172	-762.27191	-112.68152	599.56439	-478.74283	41.94867	603.26959	-465.65799	-192.91823	563.70215	401.01465	-52.31726	567.36694	414.64621	
3530	35.290	-250.92554	12.37799	-452.10654	253.68832	20.46758	-380.74597	-262.36832	17.36727	115.74540	189.81001	30.56993	156.66382	-73.68812	740.47571	-762.52563	-111.86482	599.31543	-480.13309	43.09745	603.16852	-466.84088	-191.84503	563.97186	399.90680	-51.33007	568.33777	414.01907	
3531	35.300	-250.63817	12.16237	-452.45340	253.91394	20.08592	-381.17798	-262.16315	17.52180	115.48277	189.96333	30.65258	156.32558	-72.51983	740.26221	-762.74628	-110.88901	599.11182	-481.10480	43.72724	602.79993	-467.98352	-191.12555	564.46021	398.78653	-50.44863	568.18390	412.51678	
3532	35.310	-250.46648	12.03685	-452.56430	254.29745	20.01258	-381.21802	-261.94824	17.82751	115.18830	190.29553	31.07404	155.64337	-71.11736	739.83087	-763.15631	-110.19202	599.04755	-482.19128	44.78951	602.32086	-469.03189	-189.96085	564.87585	397.78418	-49.55169	569.03876	411.73975	
3533	35.320	-249.89093	11.76103	-452.76956	254.55846	19.84100	-381.25027	-261.68289	17.96696	115.11256	190.69916	31.05084	155.48065	-69.11050	738.94080	-763.67792	-108.86490	598.92468	-483.03537	45.62163	602.17975	-470.00909	-188.78754	565.16010	396.83337	-48.42311	569.51740	411.07892	
3534	35.330	-249.41919	11.57895	-452.86014	254.84830	19.78216	-381.38315	-261.27536	18.04350	115.05883	190.99817	30.96652	155.50105	-66.47601	737.29401	-764.72070	-108.41611	598.64044	-483.31854	46.40790	601.96680	-470.82346	-187.65065	565.19586	396.29025	-47.08912	569.14069	410.10443	
